<svg xmlns="http://www.w3.org/2000/svg" xmlns:xlink="http://www.w3.org/1999/xlink" viewBox="0 0 166.28 76.36"><defs><style>.cls-1{fill:url(#linear-gradient);}.cls-2{fill:url(#linear-gradient-2);}.cls-3{fill:none;}.cls-4{isolation:isolate;}.cls-5{opacity:0.6;}.cls-6{clip-path:url(#clip-path);}.cls-7{fill:#626366;}.cls-8{fill:#008a9e;}.cls-9{opacity:0.4;}.cls-14,.cls-9{mix-blend-mode:multiply;}.cls-10{clip-path:url(#clip-path-2);}.cls-11{clip-path:url(#clip-path-3);}.cls-12{mask:url(#mask);}.cls-13{fill:url(#linear-gradient-3);}.cls-15{clip-path:url(#clip-path-4);}.cls-16{clip-path:url(#clip-path-5);}.cls-17{mask:url(#mask-2);}.cls-18{fill:url(#linear-gradient-4);}</style><linearGradient id="linear-gradient" x1="-332.25" y1="336.93" x2="-331.86" y2="336.93" gradientTransform="matrix(252.82, 0, 0, -252.82, 84041.69, 85216.73)" gradientUnits="userSpaceOnUse"><stop offset="0" stop-color="#fff"/><stop offset="0.06" stop-color="#dadada"/><stop offset="0.16" stop-color="#a7a7a7"/><stop offset="0.26" stop-color="#7b7b7b"/><stop offset="0.37" stop-color="#555"/><stop offset="0.48" stop-color="#363636"/><stop offset="0.59" stop-color="#1e1e1e"/><stop offset="0.71" stop-color="#0d0d0d"/><stop offset="0.84" stop-color="#030303"/><stop offset="1"/></linearGradient><linearGradient id="linear-gradient-2" x1="-332.43" y1="337.1" x2="-332.04" y2="337.1" gradientTransform="matrix(227.05, 0, 0, -227.05, 75556.31, 76595.9)" gradientUnits="userSpaceOnUse"><stop offset="0" stop-color="#fff"/><stop offset="0.1" stop-color="#fff"/><stop offset="0.18" stop-color="#e0e0e0"/><stop offset="0.3" stop-color="#bbb"/><stop offset="0.42" stop-color="#9c9c9c"/><stop offset="0.54" stop-color="#848484"/><stop offset="0.67" stop-color="#737373"/><stop offset="0.82" stop-color="#696969"/><stop offset="1" stop-color="#666"/></linearGradient><clipPath id="clip-path" transform="translate(-2.03 -2)"><rect class="cls-3" x="2.03" y="64.83" width="63.06" height="13.53"/></clipPath><clipPath id="clip-path-2" transform="translate(-2.03 -2)"><rect class="cls-3" x="40.75" y="2" width="98.87" height="61.42"/></clipPath><clipPath id="clip-path-3" transform="translate(-2.03 -2)"><path class="cls-3" d="M99,2a19.88,19.88,0,0,0-9.8,3c-4.4,2.74-9.66,8.52-9.66,20.53v6.27q2.62-1.71,5.25-3.36V25.54C84.78,8,97.5,7.27,99,7.25h29.47l-3.32,1.63A450.51,450.51,0,0,0,40.75,63.42h8.34C65.48,50.38,98.78,26,139.63,7.88V2Z"/></clipPath><mask id="mask" x="38.72" y="0" width="98.87" height="61.42" maskUnits="userSpaceOnUse"><g transform="translate(-2.03 -2)"><rect class="cls-1" x="40.75" y="2" width="98.87" height="61.42"/></g></mask><linearGradient id="linear-gradient-3" x1="-332.25" y1="336.93" x2="-331.86" y2="336.93" gradientTransform="matrix(252.82, 0, 0, -252.82, 84039.66, 85214.73)" gradientUnits="userSpaceOnUse"><stop offset="0" stop-color="#626366"/><stop offset="0.1" stop-color="#535356"/><stop offset="0.3" stop-color="#3e3c3e"/><stop offset="0.5" stop-color="#2f2c2d"/><stop offset="0.72" stop-color="#262223"/><stop offset="1" stop-color="#231f20"/></linearGradient><clipPath id="clip-path-4" transform="translate(-2.03 -2)"><rect class="cls-3" x="79.52" y="41.28" width="88.79" height="35.11"/></clipPath><clipPath id="clip-path-5" transform="translate(-2.03 -2)"><path class="cls-3" d="M103.47,65.55A2.74,2.74,0,0,0,101.08,67a2.76,2.76,0,1,0,0,2.7,2.76,2.76,0,1,0,2.39-4.11m11.42.06A2.77,2.77,0,0,0,112.48,67a2.76,2.76,0,1,0,0,2.71,2.76,2.76,0,1,0,2.41-4.12m-2.4,5.25a2.76,2.76,0,1,0,2.76,2.76,2.76,2.76,0,0,0-2.76-2.76m48.94-15-4.94,4.94a16.84,16.84,0,0,1-5.18,3.24,16.48,16.48,0,0,1-5.94,1.37l-4.79,4.87h4.79a23.32,23.32,0,0,0,14.57-6l8.38-8.38ZM79.52,44.51V58.45h4.87V41.28Q82,42.87,79.52,44.51m77.68,11.43H125.56a5.1,5.1,0,0,1-4.3-2.39H115.6a5.13,5.13,0,0,1-5.09,4.9h-2.34a9.94,9.94,0,0,0,1.45-4.9h-4.87a5.14,5.14,0,0,1-5.1,4.9H97.31a9.89,9.89,0,0,0,1.45-4.9H93.88a5.13,5.13,0,0,1-5.09,4.9h-4.4v4.86h4.4a9.9,9.9,0,0,0,7.11-3v3h3.74a9.9,9.9,0,0,0,7.1-3v3h3.76A10,10,0,0,0,118.67,59l.35-.58,0-.06a9.92,9.92,0,0,0,6.5,2.42h26.69Zm-61-4.56a2.76,2.76,0,1,0-2.76-2.76,2.76,2.76,0,0,0,2.76,2.76"/></clipPath><mask id="mask-2" x="77.49" y="39.28" width="88.79" height="35.11" maskUnits="userSpaceOnUse"><g transform="translate(-2.03 -2)"><rect class="cls-2" x="79.52" y="41.28" width="88.79" height="35.11"/></g></mask><linearGradient id="linear-gradient-4" x1="-332.43" y1="337.1" x2="-332.04" y2="337.1" gradientTransform="matrix(227.05, 0, 0, -227.05, 75554.28, 76593.9)" gradientUnits="userSpaceOnUse"><stop offset="0" stop-color="#6d6e70"/><stop offset="0.1" stop-color="#6d6e70"/><stop offset="0.46" stop-color="#656669"/><stop offset="1" stop-color="#626366"/></linearGradient></defs><title>logo</title><g class="cls-4"><g id="Layer_1" data-name="Layer 1"><g class="cls-5"><g class="cls-6"><path class="cls-7" d="M5,75.55H2v-8.4a1.92,1.92,0,0,1,.6.14,1.12,1.12,0,0,1,.38.26,1.14,1.14,0,0,1,.31.44,1.44,1.44,0,0,1,.1.54v5.69H5Z" transform="translate(-2.03 -2)"/><path class="cls-7" d="M6.92,74.22a3.66,3.66,0,0,1-.4-.87,3,3,0,0,1-.14-.89,3,3,0,0,1,.1-.81,3,3,0,0,1,.41-.83,1.43,1.43,0,0,1-.49-.1A1.27,1.27,0,0,1,6,70.46a1,1,0,0,1-.22-.4,3,3,0,0,1-.11-.67h6.43c3,.12,3.06,2.3,3.06,3.11a3,3,0,0,1-3.06,3H4V74.22Zm3.4,0V72.46c0-.7-.18-1.66-1.21-1.64a1.54,1.54,0,0,0-1.35,1.64A1.62,1.62,0,0,0,9.5,74.22Zm1.42,0s2,.15,2.08-1.71a1.52,1.52,0,0,0-1.74-1.69h-.85a2.23,2.23,0,0,1,.5,1.65Z" transform="translate(-2.03 -2)"/><path class="cls-7" d="M17.27,74.58A1.69,1.69,0,0,0,19,76.28a1.58,1.58,0,0,0,1.72-1.7V69.35a2,2,0,0,1,.6.17,1.68,1.68,0,0,1,.39.26,1.26,1.26,0,0,1,.41,1v1.73a1.58,1.58,0,0,0,1.69,1.76h.11V70.74a1.27,1.27,0,0,1,.39-1,1.31,1.31,0,0,1,.39-.26,2.21,2.21,0,0,1,.61-.17v4.87h0A1.64,1.64,0,0,0,27,72.46V70.74a1.28,1.28,0,0,1,.1-.51,1.45,1.45,0,0,1,.27-.41,1.21,1.21,0,0,1,.41-.29,2.32,2.32,0,0,1,.66-.17v3.11a2.85,2.85,0,0,1-3.12,3.09H23.77A2.88,2.88,0,0,1,22,75a4,4,0,0,1-.32,1,3,3,0,0,1-.5.74,3.06,3.06,0,0,1-2.25.92,2.94,2.94,0,0,1-3.11-3.09V71.51a2.68,2.68,0,0,1,.66.11,1,1,0,0,1,.41.23h0a1.35,1.35,0,0,1,.36,1Zm5.49-6.93a.81.81,0,0,1,.87-.87,1,1,0,0,1,.67.23.83.83,0,0,1,.25.63.9.9,0,0,1-.25.65.89.89,0,0,1-.67.26A.81.81,0,0,1,23,68.3a.93.93,0,0,1-.24-.65m1-2a.81.81,0,0,1,.27-.61.87.87,0,0,1,.62-.25.91.91,0,0,1,.66.25.82.82,0,0,1,.26.61,1,1,0,0,1-.26.69.87.87,0,0,1-.66.27.84.84,0,0,1-.62-.27.93.93,0,0,1-.27-.69m1,2A.82.82,0,0,1,25,67a.91.91,0,0,1,.65-.23.89.89,0,0,1,.62.23.82.82,0,0,1,.26.63.89.89,0,0,1-.26.65.84.84,0,0,1-.62.26A.87.87,0,0,1,25,68.3a.89.89,0,0,1-.25-.65" transform="translate(-2.03 -2)"/><path class="cls-7" d="M29.05,67.67A.85.85,0,0,1,29.3,67a.94.94,0,0,1,1.27,0,.84.84,0,0,1,.24.63.89.89,0,0,1-.24.65.92.92,0,0,1-1.27,0,.89.89,0,0,1-.24-.65m.11,3a.9.9,0,0,1,.1-.48,1.47,1.47,0,0,1,.33-.42,2.06,2.06,0,0,1,.47-.32,1.63,1.63,0,0,1,.54-.16v7a1.15,1.15,0,0,1-.11.48,1.53,1.53,0,0,1-.3.43,1.62,1.62,0,0,1-.45.32,1.41,1.41,0,0,1-.58.15Z" transform="translate(-2.03 -2)"/><path class="cls-7" d="M31.55,70.72a.82.82,0,0,1,.1-.47,1.54,1.54,0,0,1,.32-.42,1.61,1.61,0,0,1,.47-.31,1.65,1.65,0,0,1,.55-.14V76.3a1.18,1.18,0,0,1-.11.48,1.54,1.54,0,0,1-.3.43,1.6,1.6,0,0,1-.46.32,1.45,1.45,0,0,1-.58.15Z" transform="translate(-2.03 -2)"/><path class="cls-7" d="M35.19,75.55a2.58,2.58,0,0,1-.64-.11,1.07,1.07,0,0,1-.43-.25,1.49,1.49,0,0,1-.27-.41,1.26,1.26,0,0,1-.1-.54V67.17a2.7,2.7,0,0,1,.65.11,1,1,0,0,1,.43.25,1.35,1.35,0,0,1,.38,1Z" transform="translate(-2.03 -2)"/><path class="cls-7" d="M37.75,75.55A1.43,1.43,0,0,1,37.9,75a1.6,1.6,0,0,1,.3-.43,1.36,1.36,0,0,1,.41-.28,1,1,0,0,1,.46-.09h.64V67.16a1.9,1.9,0,0,1,.64.14,1,1,0,0,1,.39.28A1.63,1.63,0,0,1,41,68a1.34,1.34,0,0,1,.1.51v1.42c.36-.43.8-.56,1.71-.56H48.1V73c0,1.33-.88,2.6-3.07,2.6Zm5.05-4.82c-1.71,0-1.71.94-1.71,1.51v2H45a1.48,1.48,0,0,0,1.64-1.33V70.74Z" transform="translate(-2.03 -2)"/><path class="cls-7" d="M51.74,75.55H48.8v-8.4a1.93,1.93,0,0,1,.59.14,1.11,1.11,0,0,1,.38.26,1.12,1.12,0,0,1,.31.44,1.45,1.45,0,0,1,.1.54v5.69h1.55Z" transform="translate(-2.03 -2)"/><path class="cls-7" d="M53.9,70.73a1.15,1.15,0,0,1,.11-.48,1.77,1.77,0,0,1,.27-.42,1.25,1.25,0,0,1,.37-.31,1.39,1.39,0,0,1,.64-.14v3.08a2.36,2.36,0,0,1-.48,1.76h1.58v1.33H51.13V74.22h1.09a1.53,1.53,0,0,0,1.68-1.76Zm-.29,6.76a1,1,0,0,1,.26-.67.86.86,0,0,1,.65-.27.81.81,0,0,1,.61.27.94.94,0,0,1,.25.67.85.85,0,0,1-.25.62.83.83,0,0,1-.61.26.88.88,0,0,1-.65-.26.86.86,0,0,1-.26-.62" transform="translate(-2.03 -2)"/><path class="cls-7" d="M59.62,70.75a1.24,1.24,0,0,1,.39-1,1.59,1.59,0,0,1,.43-.28,2.27,2.27,0,0,1,.6-.15v3.12c0,2.27-1.39,3.07-3.12,3.07H56V74.22h1.91a1.53,1.53,0,0,0,1.7-1.73Zm-2.4-3.1a.82.82,0,0,1,.25-.63.87.87,0,0,1,.62-.23.94.94,0,0,1,.65.23.81.81,0,0,1,.26.63.89.89,0,0,1-.91.91.83.83,0,0,1-.62-.26.9.9,0,0,1-.25-.65m2,0a.83.83,0,0,1,.24-.63.87.87,0,0,1,.63-.23.92.92,0,0,1,.67.23.83.83,0,0,1,.24.63.91.91,0,0,1-.24.65.87.87,0,0,1-.67.26.83.83,0,0,1-.63-.26.91.91,0,0,1-.24-.65" transform="translate(-2.03 -2)"/><path class="cls-7" d="M61.63,70.72a.82.82,0,0,1,.1-.47,1.59,1.59,0,0,1,.32-.42,1.62,1.62,0,0,1,.47-.31,1.65,1.65,0,0,1,.55-.14V76.3a1.18,1.18,0,0,1-.11.48,1.55,1.55,0,0,1-.76.76,1.44,1.44,0,0,1-.58.15Z" transform="translate(-2.03 -2)"/><path class="cls-7" d="M65.09,75.55a2.61,2.61,0,0,1-.65-.11,1,1,0,0,1-.43-.25,1.53,1.53,0,0,1-.28-.41,1.29,1.29,0,0,1-.1-.54V67.17a2.66,2.66,0,0,1,.64.11,1,1,0,0,1,.43.25,1.35,1.35,0,0,1,.38,1Z" transform="translate(-2.03 -2)"/></g></g><path class="cls-8" d="M99,2a19.88,19.88,0,0,0-9.8,3c-4.4,2.74-9.66,8.52-9.66,20.53v6.27q2.62-1.71,5.25-3.36V25.54C84.78,8,97.5,7.27,99,7.25h29.47l-3.32,1.63A450.51,450.51,0,0,0,40.75,63.42h8.34C65.48,50.38,98.78,26,139.63,7.88V2Z" transform="translate(-2.03 -2)"/><g class="cls-9"><g class="cls-10"><g class="cls-11"><g class="cls-12"><rect class="cls-13" x="38.72" width="98.87" height="61.42"/></g></g></g></g><g class="cls-14"><g class="cls-15"><g class="cls-16"><g class="cls-17"><rect class="cls-18" x="77.49" y="39.28" width="88.79" height="35.11"/></g></g></g></g></g></g></svg>